# xmcd
#
# Track frame offsets:
#	150
#	23816
#	33645
#	50979
#	66150
#	80753
#	92468
#	108135
#	120885
#	139663
#	156559
#	168907
#	180282
#	195334
#	207153
#	222996
#	235201
#	254751
#	265263
#	279112
#	293709
#	308761
#	324941
#	341666
#
# Disc length: 4708
#
# Revision: 3
# Processed by: cddbd v1.5.1PL0 Copyright (c) Steve Scherf et al.
# Submitted via: EasyCDDAExtractor 5.0.6
# Normalized: r2:TDELIM( - )
#
DISCID=55126218
DTITLE=Discoteque Latino - Edicion Especial Fiestas
DYEAR=2004
DGENRE=
TTITLE0=Te Llevare Al Cielo - Mana
TTITLE1=El Meneaito, Menealo - Gaby (Feat Vanessa)
TTITLE2=Ay Papacito - Limite
TTITLE3=El Paso Del Guasanito - El Chombo
TTITLE4=Simarick - Tarkan
TTITLE5=Jaleo - Ricky Martin
TTITLE6=No Te Toco - Sultanes
TTITLE7=Manos Arriba - El Original
TTITLE8=La Bomba - El Original
TTITLE9=El Viejo De Arriba - Bersuit Vergarabat
TTITLE10=Tu Pum Pum 2003 - El General
TTITLE11=Buduff Kun Kun 2003 - El General
TTITLE12=Hoy - Gloria Estefan
TTITLE13=Tu Cariñito - Puerto Rican Power
TTITLE14=Apretaito - Azul Azul
TTITLE15=Mueve Para Aqui - Kabron Latino
TTITLE16=Menealo - Maxi Blank (Feat Vanessa)
TTITLE17=La Lengua - El Vacilon
TTITLE18=Bicho Choto - Los Fatales
TTITLE19=Sin Un beso - Marcela Morelo
TTITLE20=Culpable - Vicentico
TTITLE21=Llorare Las Penas - David Bisbal
TTITLE22=Un Monton De Estrellas - Polo Montañez
TTITLE23=Mi Primer Millon - Bacilos
EXTD=Ripped by Jamiro Dee JAY
EXTT0=
EXTT1=
EXTT2=
EXTT3=
EXTT4=
EXTT5=
EXTT6=
EXTT7=
EXTT8=
EXTT9=
EXTT10=
EXTT11=
EXTT12=
EXTT13=
EXTT14=
EXTT15=
EXTT16=
EXTT17=
EXTT18=
EXTT19=
EXTT20=
EXTT21=
EXTT22=
EXTT23=
PLAYORDER=
